<mxfile host="app.diagrams.net" modified="2023-10-16T14:51:10.950Z" agent="Mozilla/5.0 (Windows NT 10.0; Win64; x64) AppleWebKit/537.36 (KHTML, like Gecko) Chrome/117.0.0.0 Safari/537.36" version="22.0.4" etag="E6hT1wbCy4uSW0OaS1Jt" type="github">
  <diagram name="第 1 页" id="Lwh7Yi3Bb2lZUa5r70g_">
    <mxGraphModel>
      <root>
        <mxCell id="0" />
        <mxCell id="1" parent="0" />
      </root>
    </mxGraphModel>
  </diagram>
</mxfile>
